<?xml version="1.0" encoding="utf-8"?>
<!-- Generator: Adobe Illustrator 24.2.2, SVG Export Plug-In . SVG Version: 6.00 Build 0)  -->
<svg version="1.1" id="Layer_1" focusable="false" xmlns="http://www.w3.org/2000/svg" xmlns:xlink="http://www.w3.org/1999/xlink"
	 x="0px" y="0px" viewBox="0 0 1066.1 244.9" style="enable-background:new 0 0 1066.1 244.9;" xml:space="preserve">
<style type="text/css">
	.st0{fill:url(#SVGID_1_);}
</style>
<linearGradient id="SVGID_1_" gradientUnits="userSpaceOnUse" x1="533.05" y1="6.7841" x2="533.05" y2="238.9317">
	<stop  offset="0" style="stop-color:#FF67C9"/>
	<stop  offset="1" style="stop-color:#FF9A9A"/>
</linearGradient>
<path class="st0" d="M118.3,7.6c63.4,0,114.8,51.4,114.8,114.8s-51.4,114.8-114.8,114.8S3.5,185.8,3.5,122.4S54.9,7.6,118.3,7.6z
	 M394.9,7.6c63.4,0,114.8,51.4,114.8,114.8s-51.4,114.8-114.8,114.8s-114.8-51.4-114.8-114.8S331.5,7.6,394.9,7.6z M671.4,7.6
	c63.4,0,114.8,51.4,114.8,114.8s-51.4,114.8-114.8,114.8s-114.8-51.4-114.8-114.8S608,7.6,671.4,7.6z M866.6,41.2
	c44.8-44.8,117.5-44.8,162.4,0c44.8,44.8,44.8,117.5,0,162.4c-44.8,44.8-117.5,44.8-162.4,0C821.8,158.7,821.8,86.1,866.6,41.2z"/>
</svg>
