<?xml version="1.0" encoding="utf-8"?>
<!-- Generator: Adobe Illustrator 24.2.2, SVG Export Plug-In . SVG Version: 6.00 Build 0)  -->
<svg version="1.1" id="Layer_1" focusable="false" xmlns="http://www.w3.org/2000/svg" xmlns:xlink="http://www.w3.org/1999/xlink"
	 x="0px" y="0px" viewBox="0 0 1066.1 244.9" style="enable-background:new 0 0 1066.1 244.9;" xml:space="preserve">
<style type="text/css">
	.st0{fill:url(#SVGID_1_);}
</style>
<linearGradient id="SVGID_1_" gradientUnits="userSpaceOnUse" x1="533.05" y1="3" x2="533.05" y2="235.0022">
	<stop  offset="0" style="stop-color:#FF67C9"/>
	<stop  offset="1" style="stop-color:#FF9A9A"/>
</linearGradient>
<path class="st0" d="M118.3,7.6c63.4,0,114.8,51.4,114.8,114.8s-51.4,114.8-114.8,114.8S3.5,185.8,3.5,122.4S54.9,7.6,118.3,7.6z
	 M394.9,7.6c63.4,0,114.8,51.4,114.8,114.8s-51.4,114.8-114.8,114.8s-114.8-51.4-114.8-114.8S331.5,7.6,394.9,7.6z M671.4,7.6
	c63.4,0,114.8,51.4,114.8,114.8s-51.4,114.8-114.8,114.8s-114.8-51.4-114.8-114.8S608,7.6,671.4,7.6z M947.8,37.6
	c22.7,0,43.9,8.8,60,24.8c16,16,24.8,37.3,24.8,60s-8.8,43.9-24.8,60c-16,16-37.3,24.8-60,24.8s-43.9-8.8-60-24.8
	c-16-16-24.8-37.3-24.8-60s8.8-43.9,24.8-60C903.8,46.4,925.1,37.6,947.8,37.6 M947.8,7.6c-29.4,0-58.8,11.2-81.2,33.6
	c-44.8,44.8-44.8,117.5,0,162.4c22.4,22.4,51.8,33.6,81.2,33.6s58.8-11.2,81.2-33.6c44.8-44.8,44.8-117.5,0-162.4
	C1006.5,18.8,977.2,7.6,947.8,7.6L947.8,7.6z"/>
<text transform="matrix(1 0 0 1 5184 3456)" style="font-family:'MyriadPro-Regular'; font-size:12px;">ff9a9a</text>
</svg>
