<?xml version="1.0" encoding="utf-8"?>
<!-- Generator: Adobe Illustrator 24.2.2, SVG Export Plug-In . SVG Version: 6.00 Build 0)  -->
<svg version="1.1" id="Layer_1" focusable="false" xmlns="http://www.w3.org/2000/svg" xmlns:xlink="http://www.w3.org/1999/xlink"
	 x="0px" y="0px" viewBox="0 0 1066.1 244.9" style="enable-background:new 0 0 1066.1 244.9;" xml:space="preserve">
<style type="text/css">
	.st0{fill:url(#SVGID_1_);}
</style>
<linearGradient id="SVGID_1_" gradientUnits="userSpaceOnUse" x1="533.05" y1="7" x2="533.05" y2="241.0769">
	<stop  offset="0" style="stop-color:#FF67C9"/>
	<stop  offset="1" style="stop-color:#FF9A9A"/>
</linearGradient>
<path class="st0" d="M118.3,7.6c63.4,0,114.8,51.4,114.8,114.8s-51.4,114.8-114.8,114.8S3.5,185.8,3.5,122.4S54.9,7.6,118.3,7.6z
	 M394.9,37.6c46.8,0,84.8,38,84.8,84.8s-38,84.8-84.8,84.8s-84.8-38-84.8-84.8S348.1,37.6,394.9,37.6 M394.9,7.6
	c-63.4,0-114.8,51.4-114.8,114.8s51.4,114.8,114.8,114.8s114.8-51.4,114.8-114.8S458.3,7.6,394.9,7.6L394.9,7.6z M671.4,37.6
	c46.8,0,84.8,38,84.8,84.8s-38,84.8-84.8,84.8s-84.8-38-84.8-84.8S624.6,37.6,671.4,37.6 M671.4,7.6C608,7.6,556.6,59,556.6,122.4
	S608,237.2,671.4,237.2s114.8-51.4,114.8-114.8S734.8,7.6,671.4,7.6L671.4,7.6z M947.8,37.6c22.7,0,43.9,8.8,60,24.8
	c16,16,24.8,37.3,24.8,60s-8.8,43.9-24.8,60c-16,16-37.3,24.8-60,24.8s-43.9-8.8-60-24.8c-16-16-24.8-37.3-24.8-60s8.8-43.9,24.8-60
	C903.8,46.4,925.1,37.6,947.8,37.6 M947.8,7.6c-29.4,0-58.8,11.2-81.2,33.6c-44.8,44.8-44.8,117.5,0,162.4
	c22.4,22.4,51.8,33.6,81.2,33.6s58.8-11.2,81.2-33.6c44.8-44.8,44.8-117.5,0-162.4C1006.5,18.8,977.2,7.6,947.8,7.6L947.8,7.6z"/>
</svg>
